<?xml version="1.0" standalone="no"?>
<!DOCTYPE svg PUBLIC "-//W3C//DTD SVG 20010904//EN"
 "http://www.w3.org/TR/2001/REC-SVG-20010904/DTD/svg10.dtd">
<svg version="1.0" xmlns="http://www.w3.org/2000/svg"
 width="1080.000000pt" height="1080.000000pt" viewBox="0 0 1080.000000 1080.000000"
 preserveAspectRatio="xMidYMid meet">

<g transform="translate(0.000000,1080.000000) scale(0.100000,-0.100000)"
fill="#000000" stroke="none">
<path d="M2074 9708 c-5 -7 -13 -47 -19 -88 l-11 -75 -28 48 c-16 26 -37 52
-47 58 -18 9 -19 6 -13 -63 13 -169 41 -223 124 -234 49 -6 49 -7 54 -48 24
-188 36 -299 33 -302 -1 -2 -20 2 -40 8 -44 13 -53 8 -37 -23 11 -20 10 -21
-6 -15 -11 4 -50 11 -89 15 -38 5 -78 11 -87 16 -26 11 -22 -2 16 -54 18 -25
52 -85 75 -133 51 -108 80 -131 170 -138 l64 -5 29 -109 c37 -143 89 -293 153
-443 l52 -121 -36 -7 c-48 -9 -88 -31 -135 -72 -21 -19 -53 -41 -72 -49 -19
-8 -34 -19 -34 -24 0 -14 60 -50 82 -50 10 0 42 -22 73 -50 96 -87 176 -115
241 -84 23 11 39 14 41 8 10 -29 166 -295 239 -407 46 -70 84 -130 84 -133 0
-2 -16 -4 -36 -4 -20 0 -77 -5 -125 -12 -95 -12 -106 -22 -71 -61 17 -19 16
-19 -38 -13 -236 24 -287 19 -334 -33 -22 -24 -20 -39 26 -146 30 -71 39 -83
78 -104 25 -13 75 -41 111 -62 75 -45 115 -49 172 -19 35 19 37 19 37 2 0 -10
7 -27 15 -38 15 -19 15 -19 32 3 22 27 57 40 147 52 85 12 133 43 166 105 14
25 27 46 30 46 3 0 35 -34 70 -76 36 -42 151 -160 255 -262 105 -102 189 -190
188 -196 -2 -7 17 -32 42 -56 25 -24 45 -47 45 -50 0 -3 -19 -6 -42 -6 -24 -1
-77 -3 -118 -5 -70 -4 -79 -2 -132 29 -71 39 -82 40 -74 6 6 -24 5 -26 -16
-20 -115 33 -174 30 -306 -15 -119 -40 -146 -38 -221 14 -159 109 -175 111
-254 33 -33 -33 -58 -67 -62 -85 -13 -59 31 -148 105 -215 86 -78 187 -100
324 -72 106 22 151 21 176 -4 26 -26 25 -66 -1 -127 -27 -62 -35 -140 -19
-187 18 -55 101 -139 162 -166 72 -31 127 -24 206 25 74 45 86 58 78 83 -8 25
-48 42 -100 42 -58 0 -81 25 -73 79 5 39 40 101 57 101 4 0 10 -9 13 -21 5
-19 10 -17 63 26 31 26 71 52 88 60 75 31 189 47 146 20 -6 -3 -10 -12 -10
-19 0 -17 160 -12 198 7 38 17 69 70 77 126 7 54 36 91 57 74 329 -260 602
-456 1093 -780 220 -146 445 -295 499 -331 l99 -67 51 -120 c89 -208 180 -341
328 -482 107 -101 195 -159 370 -247 l153 -76 240 -236 c196 -192 233 -233
200 -219 -258 109 -376 151 -799 287 -31 10 -46 24 -66 58 -21 37 -33 47 -66
54 -21 4 -58 15 -82 23 -50 17 -63 12 -37 -17 31 -34 12 -31 -55 10 -148 89
-271 223 -345 375 -23 50 -70 146 -103 215 -190 394 -570 731 -997 880 -163
57 -224 86 -331 157 -97 64 -201 101 -248 89 -90 -22 -67 -200 67 -507 119
-273 242 -431 487 -625 87 -69 187 -133 289 -183 46 -23 122 -74 170 -112 150
-122 302 -180 481 -183 52 0 109 3 125 7 26 8 39 2 100 -39 78 -52 112 -81 83
-71 -24 8 -284 63 -438 91 -287 54 -540 86 -850 110 -276 21 -309 36 -578 260
-204 169 -266 214 -369 266 -111 55 -217 78 -418 90 -93 6 -228 17 -298 25
-187 22 -272 20 -297 -5 -24 -24 -25 -44 -5 -99 62 -176 341 -394 630 -492
l70 -24 -70 -8 c-38 -5 -98 -6 -132 -4 -76 6 -143 40 -382 199 -262 175 -364
214 -493 190 -106 -19 -201 -75 -304 -177 -121 -119 -162 -197 -124 -235 19
-19 27 -20 159 -14 161 8 180 4 365 -68 l128 -50 -58 -32 c-33 -17 -95 -55
-139 -83 -44 -28 -124 -73 -178 -100 -80 -39 -97 -52 -95 -68 6 -39 65 -48
303 -49 192 -1 228 1 279 18 83 28 182 96 316 219 69 62 143 119 181 140 l65
34 210 7 c195 7 284 3 284 -13 0 -3 -37 -16 -83 -29 -104 -29 -279 -113 -390
-187 -196 -130 -296 -238 -336 -362 -28 -88 -19 -116 49 -151 124 -61 562 -55
759 10 187 62 307 170 483 435 118 177 173 238 233 255 135 41 718 -38 1395
-188 113 -26 211 -49 218 -53 8 -5 -30 -11 -85 -14 -99 -7 -168 -22 -235 -51
-56 -24 -83 -20 -156 24 -84 51 -142 68 -273 80 -182 16 -382 -16 -524 -84
-38 -18 -113 -66 -165 -107 -99 -77 -240 -181 -421 -312 -237 -171 -374 -331
-423 -496 -20 -69 -20 -94 0 -137 40 -84 124 -84 329 -1 77 31 158 61 180 66
62 16 230 38 340 46 169 11 306 50 489 142 183 91 413 255 505 359 22 25 54
79 71 122 44 110 51 122 88 159 83 83 180 106 457 107 l210 1 190 -64 c190
-63 453 -164 574 -219 l63 -29 -153 -6 c-85 -4 -194 -14 -244 -23 -49 -9 -124
-17 -166 -18 -74 -1 -78 0 -133 39 -151 107 -232 142 -356 151 -92 8 -175 -7
-256 -45 -201 -94 -381 -279 -463 -474 -96 -232 -92 -440 9 -492 56 -29 117
-19 205 32 103 59 173 94 260 128 106 41 280 134 324 172 22 18 96 96 165 172
115 128 131 142 213 184 123 63 289 99 462 98 72 0 129 -5 135 -11 5 -5 36
-10 68 -10 45 0 66 5 89 22 20 15 42 22 70 21 l41 -2 -56 54 c-55 53 -74 85
-38 66 9 -6 34 -13 54 -16 52 -8 68 -28 68 -84 0 -57 -27 -89 -84 -98 -39 -6
-168 12 -198 28 -12 6 -20 4 -27 -8 -8 -15 1 -19 77 -35 106 -22 158 -22 195
-3 28 14 32 13 135 -47 229 -131 525 -337 707 -492 93 -79 205 -183 205 -190
0 -3 -28 8 -62 23 -35 16 -128 52 -208 81 -170 61 -191 70 -200 90 -42 91 -65
126 -130 191 -123 124 -284 218 -444 259 -235 60 -612 -14 -849 -166 -123 -79
-167 -131 -167 -198 0 -56 43 -96 157 -145 54 -24 203 -97 331 -162 129 -66
266 -133 307 -149 111 -44 223 -64 325 -57 157 11 271 66 399 195 l85 84 49
-5 c55 -7 242 -69 362 -120 89 -38 111 -62 49 -55 -22 3 -47 8 -56 12 -28 12
-22 -15 10 -54 26 -30 35 -34 84 -36 42 -1 72 -11 123 -38 38 -20 76 -36 86
-36 19 0 87 -89 253 -333 59 -86 152 -214 207 -283 111 -141 164 -226 214
-340 37 -85 55 -102 90 -86 37 17 39 45 10 132 -26 79 -93 196 -184 320 -26
36 -99 139 -162 230 -62 91 -162 226 -220 301 -84 107 -107 145 -113 179 -10
61 -39 113 -83 143 -29 21 -54 57 -112 164 -40 76 -118 206 -172 290 -164 251
-202 340 -250 586 -15 82 -37 182 -49 224 -45 163 -201 507 -298 658 -58 91
-205 278 -239 304 -53 43 -119 18 -149 -55 -22 -52 -43 -152 -53 -251 -23
-225 41 -534 164 -788 123 -253 222 -352 430 -430 148 -56 257 -126 328 -212
37 -45 184 -323 171 -323 -4 0 -47 39 -98 87 -215 205 -534 433 -820 588 -62
34 -91 56 -103 79 -9 17 -22 36 -29 41 -7 6 -65 80 -129 165 -122 165 -215
331 -280 501 -66 170 -154 563 -154 684 -1 144 7 191 43 280 20 50 57 120 82
157 70 102 126 139 242 157 144 22 222 67 329 188 143 161 195 211 254 243 52
27 74 33 168 39 109 9 138 17 179 54 46 43 22 66 -87 81 -24 4 -96 26 -160 50
-64 24 -140 49 -169 55 -117 25 -234 6 -371 -60 -139 -68 -278 -218 -382 -416
-41 -78 -41 -78 -35 -160 8 -95 3 -111 -76 -241 -41 -69 -53 -82 -58 -66 -8
20 -24 200 -40 433 l-10 145 28 35 c46 58 63 98 61 146 -3 42 0 47 77 127 88
94 118 143 164 269 39 109 69 144 182 215 213 133 345 242 640 531 119 117
238 226 264 243 64 40 127 41 184 4 22 -15 60 -29 84 -31 80 -9 130 40 171
165 36 111 -8 167 -150 187 -27 4 -84 22 -126 40 -92 40 -190 56 -277 44 -141
-20 -340 -109 -463 -207 -91 -73 -424 -410 -466 -472 -97 -143 -123 -240 -132
-506 -7 -200 -7 -202 -39 -266 -17 -36 -59 -95 -93 -132 l-62 -67 -24 23 c-25
23 -25 24 -18 143 9 159 17 228 71 560 66 411 93 547 114 570 10 11 28 52 39
92 41 149 150 255 492 479 339 222 449 319 581 512 213 313 258 650 154 1162
l-31 155 -32 3 c-48 5 -89 -39 -193 -210 -135 -221 -153 -244 -360 -448 -198
-195 -232 -238 -285 -354 -63 -135 -76 -207 -85 -451 -9 -281 -13 -292 -153
-502 -45 -68 -86 -123 -91 -123 -4 0 -5 28 -2 63 16 152 26 310 26 402 0 173
19 222 187 476 242 368 289 520 281 913 -3 164 -5 179 -23 192 -92 67 -406
-285 -510 -571 -25 -69 -31 -73 -38 -22 -9 62 -60 188 -115 281 -115 193 -249
305 -321 267 -44 -24 -39 -97 28 -381 79 -332 128 -451 256 -622 108 -143 121
-172 152 -321 26 -126 27 -175 6 -401 l-6 -69 -19 37 c-10 20 -23 34 -27 32
-5 -3 -12 -42 -15 -86 -4 -44 -11 -82 -15 -84 -4 -3 -15 59 -24 137 -40 331
-107 535 -242 738 -174 261 -433 447 -735 530 -63 17 -171 47 -239 66 l-123
35 -22 -21 c-18 -19 -21 -32 -20 -109 1 -72 7 -103 34 -177 92 -256 231 -448
432 -598 42 -31 145 -101 230 -154 204 -129 268 -193 368 -371 93 -167 156
-249 251 -331 41 -36 79 -76 84 -89 8 -18 -5 -113 -52 -400 -89 -533 -111
-691 -124 -888 -7 -96 -16 -174 -19 -174 -4 0 -18 24 -31 53 l-23 52 -4 -42
c-2 -24 -5 -43 -7 -43 -11 0 -94 98 -136 159 -69 102 -103 195 -154 426 -137
611 -269 839 -890 1532 -44 49 -97 111 -118 136 -21 26 -50 55 -63 64 -24 15
-27 15 -52 -4 -15 -11 -32 -38 -39 -62 -21 -73 -36 -280 -29 -406 13 -243 54
-413 145 -600 131 -268 321 -465 746 -776 195 -142 260 -203 405 -384 57 -71
137 -167 177 -212 40 -46 75 -93 77 -105 3 -13 7 -99 11 -192 5 -148 14 -266
41 -514 l7 -63 -34 21 c-19 12 -63 39 -99 59 -70 41 -119 99 -120 142 0 45
-104 239 -174 326 -113 140 -291 285 -422 344 -117 53 -180 63 -384 63 -236
-1 -372 -24 -385 -65 -9 -28 1 -37 111 -104 123 -77 212 -158 310 -287 42 -57
102 -134 133 -172 52 -65 103 -176 80 -176 -11 0 -521 339 -764 509 -316 220
-683 493 -712 529 -22 27 -14 58 26 108 55 71 71 106 71 164 0 64 -32 130 -94
189 -32 32 -53 65 -72 112 -26 69 -58 119 -75 119 -14 0 -47 -77 -55 -128 -4
-23 -9 -42 -11 -42 -2 0 -26 18 -52 40 -76 64 -87 53 -47 -46 13 -32 33 -107
45 -165 11 -58 28 -123 36 -144 19 -45 15 -43 -75 34 -251 215 -600 556 -600
587 0 6 20 19 45 28 53 21 91 62 106 118 17 63 35 83 100 113 33 14 59 32 57
38 -6 18 -89 57 -121 57 -43 0 -30 19 54 76 97 66 123 103 115 166 -10 88 -54
136 -114 125 -16 -3 -32 4 -52 24 -18 18 -34 27 -44 23 -9 -3 -16 -1 -16 6 0
32 -45 112 -71 125 -65 34 -113 7 -125 -70 -4 -30 -17 -59 -34 -79 -41 -47
-63 -95 -64 -143 0 -24 -3 -43 -6 -43 -3 0 -18 9 -35 20 -32 21 -65 26 -65 10
0 -5 15 -38 34 -72 19 -35 38 -80 41 -101 9 -45 -3 -147 -16 -147 -17 0 -309
465 -309 492 0 5 12 8 27 8 37 0 88 37 115 85 20 35 23 52 21 138 -1 64 3 112
13 139 17 49 18 78 3 78 -7 0 -46 -20 -87 -45 -41 -25 -76 -44 -77 -43 0 2
-20 33 -43 69 -23 36 -49 86 -58 112 -21 61 -30 65 -48 24 -14 -35 -82 -117
-96 -117 -12 0 -125 291 -165 425 l-36 120 30 25 c17 14 44 35 60 48 37 28 54
83 41 132 -43 168 -81 225 -102 155 -5 -16 -14 -41 -19 -54 l-10 -25 -26 33
c-14 18 -31 30 -38 27 -18 -7 -21 2 -46 164 -25 160 -26 156 53 195 62 29 81
70 74 164 -6 97 -21 113 -67 74 -19 -16 -50 -41 -70 -56 l-37 -26 -6 22 c-5
21 -76 139 -96 160 -4 5 -12 3 -16 -5z m71 -132 c14 -28 26 -68 26 -90 1 -23
5 -54 9 -71 l7 -30 7 30 c22 92 28 105 64 132 20 15 43 36 50 45 23 32 32 19
32 -47 0 -81 -14 -112 -62 -136 -22 -11 -48 -29 -58 -39 -21 -21 -49 -26 -65
-12 -6 5 -36 14 -68 21 -72 16 -93 44 -102 140 -4 36 -9 74 -12 85 -3 11 -1
16 5 12 5 -3 13 -18 17 -33 3 -15 17 -40 31 -56 13 -16 24 -41 24 -57 0 -18 8
-35 22 -44 32 -22 41 -20 24 7 -17 28 -28 132 -19 193 l6 46 18 -23 c11 -13
30 -46 44 -73z m6006 38 c16 -63 40 -388 40 -537 0 -367 -102 -643 -323 -873
-102 -107 -188 -174 -438 -344 -266 -181 -375 -271 -430 -355 -15 -22 -18 -24
-24 -10 -11 30 -6 40 75 155 92 129 151 246 174 341 10 44 15 118 15 234 0
194 17 286 74 409 50 110 103 181 207 281 216 207 257 253 344 386 185 283
240 356 266 347 7 -2 16 -18 20 -34z m-723 -60 c7 -131 -47 -524 -89 -654 -30
-90 -48 -123 -159 -295 -184 -284 -209 -344 -216 -515 -6 -166 -25 -401 -33
-424 -7 -17 -10 -13 -25 25 -15 39 -16 58 -6 154 18 189 13 327 -14 440 -37
152 -63 213 -126 295 -75 99 -102 146 -145 259 -41 105 -139 458 -150 536 -4
28 -14 77 -22 109 -13 52 -13 61 0 74 24 24 64 6 129 -56 113 -108 243 -329
273 -466 16 -75 27 -469 13 -459 -5 2 -8 11 -8 20 0 63 -151 525 -167 510 -2
-2 10 -40 27 -83 16 -43 46 -142 66 -219 19 -77 47 -183 60 -235 35 -135 93
-328 94 -310 0 8 -7 51 -16 95 -32 156 -17 508 28 654 47 153 150 326 274 460
66 71 178 155 199 148 5 -2 11 -30 13 -63z m-5224 -268 c3 -17 14 -93 26 -169
20 -129 20 -177 0 -177 -23 0 -40 59 -59 206 -27 204 -27 196 4 182 16 -7 26
-21 29 -42z m3467 -185 c112 -38 250 -89 306 -114 361 -159 610 -464 714 -874
49 -193 89 -529 72 -593 -6 -22 -7 -45 -1 -60 21 -58 -1 -48 -71 33 -78 89
-104 127 -211 304 -103 171 -218 278 -449 423 -146 91 -203 133 -271 200 -90
90 -188 226 -240 336 -97 203 -130 414 -65 414 6 0 104 -31 216 -69z m-3230
-161 c33 -120 26 -154 -44 -195 -24 -13 -54 -36 -67 -50 l-23 -25 -32 20 c-24
15 -50 20 -100 20 -86 0 -113 18 -150 102 -15 35 -41 82 -56 105 -16 23 -29
44 -29 47 0 9 114 -5 139 -17 13 -6 37 -37 55 -67 38 -68 50 -43 13 28 -13 26
-27 57 -31 70 -7 21 -6 21 21 11 60 -23 108 -93 120 -174 3 -25 10 -45 16 -45
6 0 7 18 2 48 -13 78 -11 126 6 150 l16 23 17 -27 c15 -21 16 -31 6 -54 -13
-32 -10 -72 6 -77 7 -2 10 6 7 21 -4 18 4 37 26 65 17 21 31 47 31 57 0 11 3
30 7 43 5 20 7 21 15 7 5 -10 18 -48 29 -86z m-157 -286 c3 -9 15 -14 27 -12
19 3 26 -10 60 -114 20 -64 65 -187 99 -272 50 -127 59 -159 50 -175 -6 -12
-11 -37 -12 -57 -1 -33 -3 -35 -15 -19 -33 46 -202 517 -228 633 -7 33 8 46
19 16z m390 -476 c-7 -69 -21 -105 -59 -157 -32 -43 -33 -106 -4 -162 26 -52
38 -43 14 11 -22 49 -16 94 21 150 19 28 29 59 32 96 2 30 8 54 12 54 11 0 74
-108 94 -161 15 -39 15 -49 2 -91 -7 -26 -28 -66 -46 -88 -24 -30 -28 -40 -16
-40 43 0 86 82 86 161 0 46 4 55 36 85 64 61 80 62 40 2 -23 -34 -36 -63 -35
-83 1 -21 3 -24 6 -10 7 25 62 123 74 131 13 8 10 -7 -6 -36 -10 -17 -14 -58
-15 -128 0 -121 -12 -152 -70 -182 -41 -21 -57 -19 -104 13 -22 16 -43 20 -88
19 -48 -1 -69 3 -102 23 -24 14 -51 25 -62 24 -13 0 -8 -6 15 -16 19 -8 46
-23 59 -34 14 -10 39 -19 56 -19 l31 -1 -35 -29 c-72 -60 -150 -48 -244 40
-33 31 -79 63 -101 71 -59 19 -19 23 60 4 65 -15 85 -14 85 6 0 5 -21 9 -47
10 -27 0 -65 3 -87 7 l-38 7 84 58 c83 56 111 65 165 51 13 -4 26 -19 33 -37
11 -34 51 -97 61 -97 3 0 -9 30 -28 66 -35 70 -42 127 -22 167 7 12 35 47 64
77 29 31 55 66 59 78 14 44 26 21 20 -40z m2496 -1 c9 -7 47 -48 85 -92 37
-44 145 -167 239 -273 446 -506 578 -741 700 -1247 20 -82 46 -188 58 -235 39
-160 103 -274 221 -396 63 -66 68 -75 65 -109 l-3 -37 -123 155 c-145 183
-296 333 -482 477 -380 295 -567 495 -688 735 -128 257 -179 586 -137 899 17
128 30 152 65 123z m1706 -440 c18 -50 44 -123 58 -162 14 -38 26 -85 26 -103
0 -52 -30 -169 -50 -194 -15 -19 -21 -21 -43 -11 -21 10 -31 29 -52 95 -34
106 -36 196 -6 298 11 41 21 99 21 129 0 30 3 51 7 47 4 -3 21 -48 39 -99z
m-3531 57 c43 -17 59 -131 30 -213 -8 -22 -11 -41 -7 -41 11 0 42 55 42 74 0
19 32 37 47 28 16 -10 33 -58 33 -90 -1 -31 -20 -68 -70 -135 -26 -34 -42 -46
-62 -47 -18 0 -37 -12 -61 -41 l-34 -42 -7 45 c-5 31 -18 59 -43 88 -28 32
-37 53 -40 88 -4 49 1 61 60 136 17 21 31 52 34 78 10 73 29 91 78 72z m-610
-106 c17 -25 59 -97 95 -159 36 -62 107 -176 159 -253 51 -77 95 -154 98 -171
3 -16 11 -40 19 -52 8 -12 14 -25 14 -29 0 -7 -64 46 -115 96 -36 34 -168 240
-282 439 -79 137 -82 145 -66 163 24 27 44 19 78 -34z m882 -108 c7 -14 13
-44 13 -66 0 -52 -25 -85 -99 -131 -31 -20 -71 -49 -88 -66 l-33 -31 0 26 c0
15 15 44 36 70 48 57 74 113 74 165 0 29 5 45 18 52 28 17 65 8 79 -19z m4655
-27 c42 -19 88 -47 101 -62 25 -26 57 -118 57 -162 0 -16 3 -20 11 -12 12 12
-6 122 -28 166 -16 33 -10 34 65 12 90 -27 110 -77 71 -179 -36 -98 -104 -130
-179 -85 -19 12 -87 74 -150 139 -121 124 -162 152 -258 174 l-57 13 44 12
c141 39 212 36 323 -16z m-312 -39 c31 -6 150 -87 150 -103 0 -5 -10 -11 -22
-15 -34 -8 -112 -89 -180 -186 -101 -142 -206 -266 -302 -357 -55 -52 -69 -69
-36 -42 82 66 248 234 315 319 140 178 160 201 195 225 20 14 45 25 55 25 19
0 115 -86 115 -102 0 -4 -15 -8 -32 -8 -63 0 -137 -57 -358 -274 -118 -117
-247 -239 -287 -273 -104 -89 -304 -238 -373 -279 -33 -19 -72 -51 -87 -72
-42 -57 -43 -58 -32 -16 25 88 42 109 244 289 39 35 16 22 -70 -38 -143 -101
-182 -155 -208 -292 -21 -110 -51 -184 -102 -254 -58 -79 -142 -171 -149 -164
-16 16 -1 49 49 108 79 93 131 178 143 233 6 26 13 117 16 202 8 244 38 355
130 484 58 79 402 427 486 490 74 56 149 93 212 105 41 9 63 8 128 -5z m-4798
-83 c51 -36 65 -64 77 -155 12 -88 30 -133 31 -78 0 45 22 91 57 125 37 35 49
24 64 -58 14 -75 6 -112 -36 -175 -18 -27 -29 -50 -23 -50 23 0 75 70 87 117
7 26 15 54 17 61 4 14 101 17 123 3 16 -10 7 -16 -36 -25 -46 -10 -78 -45 -98
-107 -27 -81 -47 -103 -114 -128 -39 -14 -62 -29 -66 -41 -7 -23 -25 -26 -43
-8 -19 19 -63 -21 -94 -85 -33 -68 -58 -83 -162 -96 -44 -5 -91 -18 -111 -30
-66 -39 -28 40 49 104 26 21 43 42 39 46 -5 5 -38 13 -73 18 -37 5 -85 20
-110 35 -25 14 -53 26 -62 26 -10 0 -18 5 -18 10 0 6 10 10 23 10 12 0 57 11
100 25 82 26 167 32 213 15 48 -19 39 -1 -12 22 -30 13 -81 24 -131 28 -86 7
-133 27 -95 41 40 15 157 21 197 10 22 -6 65 -31 95 -56 30 -25 67 -49 83 -52
15 -3 30 -10 33 -14 3 -5 9 -9 14 -9 5 0 -7 27 -26 60 -32 53 -35 65 -30 107
3 27 8 91 12 143 l6 95 -36 59 c-20 32 -36 61 -36 63 0 6 34 -15 92 -56z
m3691 -169 c15 -16 14 -32 -13 -197 -130 -818 -140 -892 -140 -1044 0 -64 -5
-85 -30 -136 l-30 -60 6 145 c7 195 33 414 94 790 75 470 83 520 90 520 4 0
14 -8 23 -18z m-4164 -245 l84 -12 -88 -30 c-48 -16 -88 -34 -87 -40 0 -5 20
-14 44 -19 23 -4 54 -16 68 -26 28 -19 114 -50 142 -50 10 0 18 -4 18 -10 0
-5 -5 -10 -10 -10 -6 0 -37 -24 -69 -54 -96 -88 -128 -97 -200 -52 -23 15 -65
37 -94 50 -48 21 -96 60 -86 70 3 3 22 1 44 -4 56 -11 171 -23 164 -16 -3 3
-43 13 -90 22 -100 18 -122 31 -149 85 -43 84 -13 109 130 108 52 0 133 -6
179 -12z m638 -179 c105 -117 315 -325 426 -425 64 -59 116 -107 115 -109 -2
-1 -27 1 -56 3 -53 6 -56 8 -220 158 -156 141 -402 390 -402 406 0 4 14 2 31
-4 27 -10 33 -10 43 6 6 9 12 17 13 17 1 0 24 -24 50 -52z m769 -135 c35 -98
54 -135 98 -191 51 -65 76 -118 76 -162 0 -45 -56 -150 -81 -150 -4 0 -10 13
-14 29 -7 32 -85 111 -110 111 -10 0 -15 -10 -16 -27 0 -16 -4 -37 -8 -48 -6
-16 -12 -9 -30 39 -12 33 -31 98 -42 145 -11 47 -31 110 -44 139 l-24 53 29
-21 c47 -34 100 -101 133 -170 41 -85 47 -54 9 42 -43 107 -46 128 -26 197 9
34 20 61 24 61 5 0 16 -21 26 -47z m28 -437 c28 -34 31 -44 32 -116 2 -88 -6
-93 -51 -34 -46 60 -57 97 -43 149 7 25 17 44 22 42 5 -2 23 -20 40 -41z
m-264 -1 c57 -19 269 -181 270 -207 0 -3 -18 -9 -39 -13 -50 -8 -66 -27 -80
-93 -24 -117 -62 -152 -163 -152 l-69 0 20 26 c11 14 27 50 36 80 23 80 83
138 160 154 31 6 55 14 52 16 -2 2 -30 11 -61 19 -81 21 -131 49 -163 92 -15
20 -43 52 -61 71 l-33 35 43 -7 c24 -4 63 -13 88 -21z m-1078 -44 c66 -60 131
-94 183 -95 24 0 71 13 120 33 92 39 167 48 249 31 48 -10 68 -21 116 -65 32
-29 68 -56 81 -60 21 -7 18 -10 -30 -31 -29 -13 -60 -24 -69 -24 -12 0 -12 -3
-1 -16 7 -8 24 -22 38 -29 55 -30 56 -31 32 -60 -11 -15 -28 -50 -36 -77 -8
-28 -31 -68 -51 -90 -60 -66 -73 -117 -49 -180 11 -29 -30 -22 -54 8 -11 14
-23 45 -26 68 -6 37 0 58 38 147 62 144 62 146 35 155 -13 4 -64 35 -114 70
-109 76 -134 79 -247 34 -84 -33 -160 -39 -206 -16 -44 23 -89 81 -96 123 -8
49 -17 65 -44 79 l-23 12 23 16 c41 28 73 20 131 -33z m727 -51 c17 -9 57 -10
145 -5 l121 7 45 -36 c25 -20 60 -41 78 -47 l33 -11 -38 -27 c-24 -17 -53 -56
-83 -111 l-45 -85 -60 -14 c-124 -27 -138 -33 -181 -73 -35 -32 -44 -37 -44
-22 0 36 22 99 46 130 22 30 29 32 96 36 65 4 137 22 127 32 -2 2 -27 -1 -56
-7 -43 -9 -62 -8 -105 6 -29 9 -64 26 -78 37 l-25 19 40 17 c22 9 50 18 62 20
12 2 38 14 58 25 31 19 46 21 100 15 80 -8 95 9 17 20 -70 10 -98 7 -128 -12
-21 -14 -27 -13 -81 13 -38 18 -69 43 -90 71 -40 53 -43 75 -5 40 15 -14 38
-31 51 -38z m-853 3 c13 -62 27 -95 51 -124 68 -80 188 -97 307 -41 90 42 117
41 191 -9 33 -22 78 -49 100 -61 22 -11 41 -22 43 -23 1 -1 -20 -56 -48 -121
-27 -65 -50 -130 -50 -144 1 -32 32 -100 57 -122 26 -24 47 -25 118 -10 44 10
67 11 88 3 30 -12 36 -39 10 -47 -10 -3 -43 -18 -74 -35 -108 -56 -213 -26
-281 80 -44 70 -45 85 -9 187 29 82 32 97 21 128 -12 39 -58 83 -95 92 -12 3
-68 -4 -123 -15 -56 -12 -116 -21 -134 -21 -51 0 -127 42 -187 101 -84 85
-103 151 -53 188 38 29 60 27 68 -6z m1703 -256 c280 -207 457 -330 910 -632
l436 -290 22 -57 c12 -32 20 -58 18 -58 -9 0 -593 385 -805 529 -349 239 -809
574 -810 591 0 4 48 36 59 39 2 1 78 -54 170 -122z m2388 61 c6 -7 18 -37 28
-67 25 -76 17 -134 -28 -201 -20 -30 -37 -67 -37 -82 0 -53 -17 -36 -33 35
-22 91 -21 114 2 179 11 29 25 74 32 101 12 49 19 56 36 35z m1079 -37 c61
-23 151 -50 200 -60 63 -13 90 -23 92 -34 6 -28 -40 -40 -170 -47 -196 -11
-206 -18 -473 -302 -104 -111 -153 -140 -285 -168 -49 -10 -106 -28 -128 -39
-80 -41 -167 -164 -238 -336 l-16 -40 -10 28 c-14 38 -7 60 53 157 76 126 88
159 93 259 4 100 23 152 99 268 91 141 201 244 319 302 98 48 161 61 263 57
76 -3 107 -10 201 -45z m-1236 -80 c16 -33 39 -95 50 -138 11 -43 27 -95 35
-115 8 -20 11 -39 6 -42 -12 -8 -37 25 -45 59 -4 17 -23 64 -41 106 -31 68
-57 189 -42 189 4 0 20 -27 37 -59z m-958 -46 c115 -20 184 -47 271 -105 182
-123 317 -271 432 -475 33 -58 21 -47 -59 52 -186 233 -388 383 -514 383 -29
0 -62 -5 -74 -11 -16 -9 -36 -4 -103 25 -104 45 -181 65 -270 71 l-70 4 60 -9
c100 -16 206 -47 279 -80 60 -27 67 -34 62 -53 -26 -94 -32 -305 -10 -362 16
-40 -19 -4 -96 103 -136 186 -253 295 -409 379 -65 35 -73 49 -34 64 103 39
356 46 535 14z m247 -221 c165 -89 440 -403 555 -633 63 -126 108 -271 171
-551 46 -203 90 -341 145 -451 47 -93 128 -180 340 -365 112 -98 236 -237 195
-219 -11 4 -30 9 -43 9 -17 1 -101 79 -291 267 -275 275 -312 305 -493 403
-175 94 -344 240 -447 386 -68 96 -124 208 -205 408 -117 288 -146 412 -146
614 0 115 1 120 26 145 23 23 31 25 84 20 37 -3 77 -15 109 -33z m807 -47 c8
3 14 -23 19 -79 3 -46 13 -152 21 -237 l15 -154 -27 -39 c-15 -21 -29 -37 -31
-34 -6 5 -31 282 -39 430 -7 124 -6 128 12 118 10 -5 24 -7 30 -5z m-2544 -70
c46 -23 108 -61 138 -84 43 -32 94 -55 235 -103 99 -34 228 -86 287 -117 189
-98 397 -271 536 -447 88 -109 163 -235 274 -458 78 -155 110 -210 154 -257
77 -84 214 -183 319 -231 80 -37 86 -42 70 -54 -14 -10 -28 -11 -54 -4 -73 20
-247 118 -324 183 -120 100 -115 98 -186 85 -80 -14 -232 1 -327 34 -87 29
-194 94 -275 165 -33 30 -108 79 -165 110 -160 86 -277 174 -410 306 -141 140
-197 222 -299 430 -91 186 -125 281 -132 365 -10 132 22 148 159 77z m2642
-579 c18 -43 21 -120 5 -149 -8 -16 -5 -48 11 -132 74 -387 98 -481 170 -659
26 -65 47 -118 45 -118 -1 0 -23 27 -49 60 -40 51 -55 84 -101 222 -29 90 -69
235 -89 323 -49 215 -56 228 -128 267 -66 35 -85 57 -118 143 -13 33 -32 77
-42 98 -19 38 -11 50 13 21 7 -9 33 -29 58 -46 67 -45 110 -88 133 -131 10
-22 21 -37 24 -34 2 2 -1 28 -7 57 -15 69 -7 129 22 177 l24 38 6 -50 c4 -27
14 -67 23 -87z m-140 -212 c50 -22 55 -28 61 -63 21 -117 69 -328 96 -421 46
-156 44 -150 27 -132 -8 8 -44 49 -80 90 l-65 75 -22 115 c-12 63 -36 168 -52
233 -16 65 -29 120 -29 123 0 7 8 5 64 -20z m-3854 -26 c69 -6 222 -17 340
-25 236 -16 302 -29 402 -80 84 -42 140 -84 298 -219 173 -149 257 -211 345
-253 72 -34 85 -36 218 -44 275 -17 648 -64 952 -120 232 -43 528 -109 543
-121 7 -6 45 -28 85 -49 39 -21 67 -39 61 -39 -7 0 -85 18 -175 40 -604 145
-1407 267 -1582 239 -109 -18 -140 -48 -317 -310 -137 -203 -215 -281 -340
-343 -52 -25 -126 -53 -165 -62 -96 -20 -385 -29 -517 -15 -122 12 -173 29
-183 61 -8 26 26 117 66 175 71 104 284 261 484 356 101 49 268 99 328 99 16
0 84 11 151 24 74 15 175 26 261 29 200 8 211 21 25 28 -143 5 -164 9 -270 43
-63 21 -185 65 -270 99 -147 57 -213 89 -530 254 -121 63 -277 129 -286 120
-2 -2 56 -29 129 -62 73 -32 209 -100 304 -152 250 -136 380 -195 543 -248 80
-26 152 -49 160 -52 15 -6 -137 -32 -200 -34 -43 -1 -581 176 -671 221 -159
81 -302 197 -380 312 -54 79 -61 100 -42 128 14 19 22 22 62 16 25 -3 102 -10
171 -16z m4770 -108 c72 -74 220 -304 294 -454 124 -254 190 -435 257 -713 52
-217 110 -342 283 -610 102 -158 147 -245 191 -361 23 -61 25 -75 15 -94 -12
-22 -16 -14 -65 106 -57 142 -153 325 -221 420 -56 79 -157 171 -225 206 -30
15 -110 54 -179 87 -146 69 -208 122 -285 246 -81 129 -177 388 -222 598 -23
106 -25 406 -4 482 41 146 83 168 161 87z m-5229 -146 c72 -22 142 -61 272
-152 137 -96 218 -144 316 -185 l68 -29 154 9 c131 8 163 6 214 -8 l60 -16
-185 -11 c-179 -10 -188 -12 -272 -47 -221 -93 -371 -91 -653 12 -240 87 -328
100 -466 72 -37 -8 -74 -11 -83 -8 -57 22 52 185 189 282 143 101 246 123 386
81z m4475 -351 c131 -147 394 -489 394 -512 0 -4 -19 11 -42 33 -24 22 -71 64
-105 93 -35 29 -86 83 -115 119 -29 37 -85 106 -126 154 -69 81 -112 164 -112
215 0 15 2 15 13 3 7 -8 49 -55 93 -105z m-4301 -180 c44 -8 103 -15 130 -15
l50 -1 -40 -34 c-84 -72 -206 -123 -373 -156 l-97 -19 85 6 c46 2 105 10 130
16 72 17 207 84 281 139 45 33 89 56 125 66 31 8 58 12 61 10 6 -7 -182 -163
-249 -207 -31 -20 -89 -48 -130 -61 -66 -22 -90 -24 -253 -24 -199 0 -298 10
-292 28 2 7 57 39 123 72 66 33 153 82 194 109 62 41 148 84 170 85 3 0 41 -6
85 -14z m3688 -62 c10 -2 29 -23 44 -46 14 -23 38 -56 55 -73 45 -48 21 -82
-44 -63 -44 12 -307 12 -405 -2 -155 -21 -191 -35 -264 -109 -51 -51 -71 -80
-84 -121 -29 -89 -50 -122 -119 -186 -175 -164 -415 -315 -614 -387 -104 -37
-257 -66 -354 -66 -188 -1 -303 -29 -546 -134 -108 -46 -166 -54 -209 -27 -28
18 -33 27 -33 60 0 61 36 163 82 232 66 100 228 255 358 344 145 99 346 246
429 313 77 62 200 124 296 148 53 14 109 18 230 19 176 0 231 -10 360 -68 95
-41 163 -42 265 -2 74 30 78 30 289 32 200 2 215 3 235 22 12 12 35 21 50 21
15 0 25 4 21 10 -3 6 -14 10 -24 10 -10 0 -41 20 -67 45 l-49 46 40 -6 c22 -4
48 -9 58 -12z m374 -202 c192 -64 422 -151 568 -216 52 -23 103 -66 105 -86 1
-21 -49 -15 -101 12 -118 59 -379 162 -594 235 -121 41 -219 76 -217 79 1 3 2
14 2 25 0 11 7 20 15 20 8 0 108 -31 222 -69z m-457 -227 c40 -9 122 -42 196
-80 125 -63 128 -64 208 -64 45 0 151 9 236 20 179 23 243 25 356 8 66 -9 90
-9 122 1 59 20 72 4 23 -26 l-42 -24 -91 15 c-50 9 -126 16 -169 16 -159 0
-483 -81 -577 -143 -18 -12 -80 -77 -139 -145 -155 -178 -202 -213 -411 -302
-64 -28 -153 -73 -197 -100 -164 -100 -229 -119 -278 -80 -38 30 -51 80 -44
174 12 163 89 353 191 477 85 104 249 220 361 255 56 18 173 17 255 -2z m1447
-200 c138 -77 344 -211 458 -298 215 -163 459 -395 499 -473 14 -29 26 -55 26
-58 0 -19 -35 8 -129 98 -286 276 -561 482 -911 681 -47 27 -86 50 -88 51 -6
5 11 65 18 65 5 0 62 -30 127 -66z m-219 -160 c195 -44 475 -248 546 -397 30
-63 48 -76 145 -101 164 -42 527 -199 539 -234 7 -21 -41 -6 -168 54 -189 88
-357 147 -421 148 l-56 1 -80 -76 c-133 -125 -262 -179 -426 -179 -128 0 -226
32 -482 159 -121 60 -265 125 -320 145 -55 20 -119 44 -142 52 -64 23 -93 50
-93 87 0 26 12 43 63 92 125 119 415 243 627 269 56 6 200 -4 268 -20z m1368
-721 c30 -70 9 -143 -42 -143 -12 0 -51 14 -86 30 -54 27 -70 30 -114 25 -45
-5 -55 -3 -80 18 l-27 24 76 7 c79 7 129 -5 169 -41 25 -22 30 -13 16 25 -10
26 -10 37 0 53 9 14 11 35 7 63 l-7 41 37 -35 c21 -19 44 -49 51 -67z m129
-248 c108 -139 483 -664 519 -728 39 -69 78 -176 71 -198 -9 -27 -45 -24 -53
4 -16 63 -112 226 -203 346 -56 74 -156 211 -222 305 -66 94 -151 212 -188
263 -68 91 -68 91 -46 107 12 8 25 14 29 13 4 -1 46 -51 93 -112z"/>
<path d="M7967 9233 c-45 -139 -124 -309 -195 -419 -28 -44 -116 -158 -195
-253 -153 -183 -208 -266 -249 -371 -27 -70 -48 -149 -26 -100 86 195 128 260
284 440 178 206 274 352 341 517 31 77 89 290 81 298 -2 2 -20 -49 -41 -112z"/>
<path d="M7255 9240 c-15 -45 -78 -186 -140 -313 -63 -128 -126 -268 -140
-311 -28 -83 -47 -213 -33 -222 4 -3 8 6 8 19 0 33 44 183 76 260 14 34 65
148 114 252 77 167 157 381 146 392 -2 3 -16 -32 -31 -77z"/>
<path d="M5584 9003 c10 -12 83 -55 163 -95 79 -40 182 -101 228 -135 145
-109 353 -348 453 -520 69 -119 160 -306 173 -356 6 -26 14 -46 16 -43 13 13
-36 145 -111 298 -99 202 -199 344 -341 483 -122 121 -220 188 -405 280 -85
42 -164 84 -175 94 -20 16 -20 16 -1 -6z"/>
<path d="M5210 7943 c0 -6 12 -45 26 -85 44 -122 153 -321 274 -499 63 -93
180 -265 260 -381 124 -181 237 -361 304 -483 15 -26 16 -27 10 -5 -11 43
-141 290 -207 395 -34 55 -118 175 -187 265 -216 287 -344 496 -446 730 -19
41 -34 70 -34 63z"/>
<path d="M7638 5873 c6 -2 18 -2 25 0 6 3 1 5 -13 5 -14 0 -19 -2 -12 -5z"/>
<path d="M7548 5856 c-91 -33 -175 -101 -290 -237 -40 -47 -107 -124 -148
-170 l-75 -84 62 53 c35 30 93 88 130 130 176 201 247 263 343 300 59 22 39
30 -22 8z"/>
<path d="M5951 5290 c141 -148 274 -389 428 -775 44 -110 91 -225 104 -256 28
-61 176 -287 203 -310 10 -8 -4 15 -30 51 -67 91 -131 223 -236 487 -97 242
-195 451 -282 598 -37 63 -81 118 -146 183 -109 108 -137 123 -41 22z"/>
<path d="M4126 5350 c118 -160 319 -353 490 -470 153 -105 195 -146 315 -306
71 -95 130 -160 213 -235 105 -95 223 -179 250 -179 6 0 -14 14 -44 31 -79 46
-247 214 -363 364 -133 172 -216 252 -367 357 -159 109 -214 156 -379 326 -73
75 -125 126 -115 112z"/>
<path d="M4002 3899 c-94 -34 -100 -37 -240 -137 -217 -155 -342 -214 -659
-312 -108 -34 -209 -68 -226 -76 -53 -28 -20 -25 59 4 44 17 179 62 302 101
263 85 384 143 557 268 66 47 162 106 213 129 50 24 92 46 92 49 0 8 -10 6
-98 -26z"/>
<path d="M7556 4390 c11 -46 65 -154 124 -250 65 -105 76 -128 213 -440 107
-242 160 -392 178 -495 16 -96 33 -111 24 -20 -13 135 -62 275 -220 620 -93
204 -104 225 -203 384 -35 57 -78 132 -94 165 -16 34 -26 50 -22 36z"/>
<path d="M2055 4261 c-44 -11 -129 -50 -122 -57 3 -3 18 1 34 9 41 21 125 37
197 37 104 0 207 -33 391 -124 189 -94 254 -117 329 -115 31 1 39 3 21 6 -91
11 -148 32 -325 118 -118 57 -226 103 -274 115 -79 20 -192 25 -251 11z"/>
<path d="M5360 3484 c-30 -20 -99 -58 -154 -85 -54 -28 -96 -52 -94 -54 6 -7
155 43 203 67 43 22 91 62 106 91 14 25 1 21 -61 -19z"/>
<path d="M4895 3264 c-22 -8 -150 -44 -285 -80 -135 -36 -277 -76 -316 -89
-169 -57 -343 -165 -464 -290 -75 -78 -31 -55 115 59 134 106 249 164 415 210
167 47 623 205 590 205 -8 0 -33 -7 -55 -15z"/>
<path d="M6193 3154 c-219 -43 -553 -240 -656 -387 -98 -140 -92 -142 39 -10
79 80 160 150 209 182 117 77 322 175 417 201 124 33 120 39 -9 14z"/>
<path d="M5429 2603 c-13 -16 -12 -17 4 -4 16 13 21 21 13 21 -2 0 -10 -8 -17
-17z"/>
<path d="M6722 2690 c-103 -19 -158 -34 -92 -26 358 46 765 18 1059 -70 122
-37 161 -40 96 -7 -110 56 -269 88 -545 108 -263 19 -390 18 -518 -5z"/>
</g>
</svg>
